<svg width="106" height="106" viewBox="0 0 106 106" version="1.1" xmlns="http://www.w3.org/2000/svg" xmlns:xlink="http://www.w3.org/1999/xlink">
<g id="Canvas" fill="none">
<g id="My location">
<g id="Background" filter="url(#filter0_d)">
<path fill-rule="evenodd" clip-rule="evenodd" d="M 23 46C 35.7025 46 46 35.7025 46 23C 46 10.2975 35.7025 0 23 0C 10.2975 0 0 10.2975 0 23C 0 35.7025 10.2975 46 23 46Z" transform="translate(30 29)" fill="white"/>
</g>
<g id="Circle">
<path fill-rule="evenodd" clip-rule="evenodd" d="M 13 26C 20.1797 26 26 20.1797 26 13C 26 5.8203 20.1797 0 13 0C 5.8203 0 0 5.8203 0 13C 0 20.1797 5.8203 26 13 26Z" transform="translate(40 39)" fill="url(#paint0_linear)"/>
</g>
</g>
</g>
<defs>
<filter id="filter0_d" x="0" y="0" width="106" height="106" filterUnits="userSpaceOnUse" color-interpolation-filters="sRGB">
<feFlood flood-opacity="0" result="BackgroundImageFix"/>
<feColorMatrix in="SourceAlpha" type="matrix" values="0 0 0 0 0 0 0 0 0 0 0 0 0 0 0 0 0 0 255 0"/>
<feOffset dy="1"/>
<feGaussianBlur stdDeviation="15"/>
<feColorMatrix type="matrix" values="0 0 0 0 0.690196 0 0 0 0 0.592157 0 0 0 0 0.843137 0 0 0 1 0"/>
<feBlend mode="normal" in2="BackgroundImageFix" result="effect1_dropShadow"/>
<feBlend mode="normal" in="SourceGraphic" in2="effect1_dropShadow" result="shape"/>
</filter>

<linearGradient id="paint0_linear" x2="1" gradientUnits="userSpaceOnUse" gradientTransform="matrix(26 26 -26 26 0 0)">
<stop stop-color="#2D9CDB"/>
<stop offset="1" stop-color="#1C5EE6"/>
</linearGradient>

</defs>
</svg>

